PathFileType	4	(X/Y/Z)	c:/Users/goper/Files/vsCode/490R/osim_files/C15/C15_Fast_01.trc
DataRate	CameraRate	NumFrames	NumMarkers	Units                	OrigDataRate	OrigDataStartFrame	OrigNumFrames
250.00	250.00	4	36	mm	250.0	1492	2387
                Frame#	Time	LPSIS			LASIS			LTH1			LTH2			LTH3			LTH4			LLFE			LMFE			LSH1			LSH2			LSH3			LSH4			LLMAL			LMMAL			LCAL			LMTP5			LTOE			LMTP1			RPSIS			RASIS			RTH1			RTH2			RTH3			RTH4			RLFE			RMFE			RSH1			RSH2			RSH3			RSH4			RLMAL			RMMAL			RCAL			RMTP1			RTOE			RMTP5		
		X1	Y1	Z1	X2	Y2	Z2	X3	Y3	Z3	X4	Y4	Z4	X5	Y5	Z5	X6	Y6	Z6	X7	Y7	Z7	X8	Y8	Z8	X9	Y9	Z9	X10	Y10	Z10	X11	Y11	Z11	X12	Y12	Z12	X13	Y13	Z13	X14	Y14	Z14	X15	Y15	Z15	X16	Y16	Z16	X17	Y17	Z17	X18	Y18	Z18	X19	Y19	Z19	X20	Y20	Z20	X21	Y21	Z21	X22	Y22	Z22	X23	Y23	Z23	X24	Y24	Z24	X25	Y25	Z25	X26	Y26	Z26	X27	Y27	Z27	X28	Y28	Z28	X29	Y29	Z29	X30	Y30	Z30	X31	Y31	Z31	X32	Y32	Z32	X33	Y33	Z33	X34	Y34	Z34	X35	Y35	Z35	X36	Y36	Z36

1492	5.96400	-217.49472	1025.88245	273.50479	-380.11993	997.84241	344.05124	-267.26080	609.25238	391.89560	-266.09085	562.12543	373.18170	-318.68930	613.77399	385.71735	-316.38531	568.62891	375.40933	-267.83917	489.30270	354.56079	-270.67706	476.63724	237.77332	-187.19249	390.70074	364.69263	-179.44649	347.32111	368.18985	-247.62602	374.93958	363.66360	-231.68748	333.23346	367.13782	-151.34247	88.06887	295.21445	-172.86835	114.41027	207.12086	-86.83707	64.64819	251.14214	-268.21387	37.09207	314.30350	-324.52731	56.02528	249.34605	-280.48148	32.43219	191.34596	-221.51291	1022.74896	152.99350	-377.77554	999.35022	93.95088	-447.64597	650.17511	27.05748	-469.46332	609.25507	37.13104	-502.55154	673.78937	38.52194	-517.40149	628.35828	43.50052	-510.21597	528.21411	66.53521	-506.12674	510.44614	183.55272	-416.43396	438.11771	50.33140	-408.51086	395.40900	47.22754	-476.85388	418.44684	47.55028	-456.81876	379.13083	42.66746	-374.29788	129.81230	102.21949	-417.93365	146.31783	184.16608	-315.16983	117.01390	157.21652	-510.46719	56.74706	171.92380	-542.53912	72.61438	115.14845	-470.37939	49.50401	61.25151
1493	5.96800	-221.69495	1025.46729	273.16061	-384.17163	997.37183	344.15768	-269.53900	609.18677	391.93594	-268.21960	561.99390	373.20001	-320.99225	613.49164	385.76151	-318.34387	568.32770	375.42969	-269.48846	489.13541	354.63925	-272.20154	475.81454	237.15591	-188.42044	390.82758	364.72107	-180.43788	347.51965	368.18329	-248.55334	374.96835	363.92160	-232.61858	333.22415	367.16006	-151.50459	88.32862	295.17697	-173.15341	114.62939	207.08670	-86.95755	64.86536	251.13272	-268.22531	37.06434	314.29803	-324.74313	55.80570	249.42833	-281.46155	31.85206	191.87141	-226.03136	1022.33820	152.66040	-382.50339	998.88434	94.13537	-452.42719	649.19543	27.81137	-473.95926	608.68634	38.11398	-507.10397	673.53278	39.80849	-522.01813	627.89838	44.35697	-514.87952	527.89172	67.45152	-510.62997	510.05252	184.30602	-422.86090	435.16800	50.52098	-416.29221	392.29126	47.42355	-483.93732	417.21844	48.02120	-464.34607	377.08307	43.19466	-389.54065	125.64040	102.10946	-432.73938	143.34079	184.12869	-330.72083	111.21216	157.02512	-527.64728	56.17817	172.00658	-559.36176	73.16972	115.13907	-487.94467	48.13906	61.21099
1494	5.97200	-225.84969	1025.16724	272.81543	-388.19101	996.89075	344.25916	-271.46188	609.17957	391.90155	-270.31784	561.89972	373.25046	-323.12277	613.16193	385.80081	-320.52243	568.04980	375.38901	-271.20215	488.97418	354.70142	-273.82169	475.58670	237.21239	-189.48692	391.03876	364.68921	-181.32870	347.65765	368.12744	-249.82057	374.80682	363.80408	-233.49071	333.23099	367.24042	-151.82257	88.47222	295.06512	-173.29326	115.00844	207.03221	-87.08997	65.15819	251.07106	-268.21851	37.05735	314.29910	-324.76312	55.77381	249.43037	-281.47443	31.86396	191.87260	-230.51740	1021.94421	152.29164	-387.09781	998.61005	94.11337	-457.63824	648.35730	27.95422	-478.33438	607.97400	39.11457	-511.56583	672.93933	40.56547	-526.45154	627.27319	45.25588	-519.36792	527.36816	68.37795	-514.98438	509.58853	184.95131	-429.26669	432.20764	50.70193	-423.99728	389.12253	47.62812	-491.27954	416.72061	48.75698	-471.90231	374.44138	43.24560	-404.98395	121.49229	101.95818	-447.84009	140.71855	184.38835	-346.52252	105.48971	156.95609	-544.72180	56.18537	171.53987	-576.04944	74.04988	115.02884	-505.50183	46.97676	61.10568
1495	5.97600	-230.11278	1024.79285	272.44647	-392.11691	996.43018	344.35434	-274.16989	609.06744	392.03424	-272.39456	561.87384	373.33121	-325.45966	612.87048	385.78326	-322.55548	567.75281	375.46930	-272.79611	488.90845	354.81558	-275.59125	475.41336	237.29784	-190.69411	391.25314	364.65759	-182.51468	348.02798	367.64249	-250.86720	374.79694	363.85751	-234.46288	333.24460	367.28177	-151.94038	88.81761	294.98178	-173.62231	115.22910	207.02968	-87.18092	65.48980	251.00249	-268.18796	37.07362	314.30334	-324.79694	55.76804	249.43703	-281.47043	31.88812	191.88046	-235.16721	1021.44714	151.99065	-392.03818	997.91321	94.33530	-462.07883	647.65894	28.42920	-482.63699	607.20941	40.13320	-515.95685	672.20898	41.41949	-530.82544	626.53723	46.24260	-523.71423	526.75537	69.27476	-519.11792	509.01639	185.74983	-435.61807	429.18353	50.94883	-431.64752	385.99402	47.67937	-498.94473	415.24084	49.77411	-482.73004	375.17877	44.48477	-419.96271	117.90868	101.85289	-462.65176	138.14529	184.40530	-362.31873	100.08831	156.71422	-561.93176	56.46415	171.42058	-592.76086	75.17817	114.99340	-523.08282	46.11280	61.03645
